HIERARCHY
ROOT hip
{
  OFFSET 0 0 0
  CHANNELS 6 Xposition Yposition Zposition Zrotation Yrotation Xrotation
  JOINT abdomen
  {
    OFFSET 0 20.6881 -0.73152
    CHANNELS 3 Zrotation Xrotation Yrotation
    JOINT chest
    {
      OFFSET 0 11.7043 -0.48768
      CHANNELS 3 Zrotation Xrotation Yrotation
      JOINT neck
      {
        OFFSET 0 22.1894 -2.19456
        CHANNELS 3 Zrotation Xrotation Yrotation
        JOINT head
        {
          OFFSET -0.24384 7.07133 1.2192
          CHANNELS 3 Zrotation Xrotation Yrotation
          JOINT leftEye
          {
            OFFSET 4.14528 8.04674 8.04672
            CHANNELS 3 Zrotation Xrotation Yrotation
            End Site
            {
              OFFSET 1 0 0
            }
          }
          JOINT rightEye
          {
            OFFSET -3.6576 8.04674 8.04672
            CHANNELS 3 Zrotation Xrotation Yrotation
            End Site
            {
              OFFSET 1 0 0
            }
          }
        }
      }
      JOINT rCollar
      {
        OFFSET -2.68224 19.2634 -4.8768
        CHANNELS 3 Zrotation Xrotation Yrotation
        JOINT rShldr
        {
          OFFSET -8.77824 -1.95073 1.46304
          CHANNELS 3 Zrotation Xrotation Yrotation
          JOINT rForeArm
          {
            OFFSET -28.1742 -1.7115 0.48768
            CHANNELS 3 Zrotation Xrotation Yrotation
            JOINT rHand
            {
              OFFSET -22.5879 0.773209 7.07136
              CHANNELS 3 Zrotation Xrotation Yrotation
              JOINT rThumb1
              {
                OFFSET -1.2192 -0.487915 3.41376
                CHANNELS 3 Zrotation Xrotation Yrotation
                JOINT rThumb2
                {
                  OFFSET -3.37035 -0.52449 3.41376
                  CHANNELS 3 Zrotation Xrotation Yrotation
                  End Site
                  {
                    OFFSET -1.78271 -1.18214 1.43049
                  }
                }
              }
              JOINT rIndex1
              {
                OFFSET -7.75947 0.938293 5.60832
                CHANNELS 3 Zrotation Xrotation Yrotation
                JOINT rIndex2
                {
                  OFFSET -2.54057 -0.884171 1.56538
                  CHANNELS 3 Zrotation Xrotation Yrotation
                  End Site
                  {
                    OFFSET -1.62519 -0.234802 1.16502
                  }
                }
              }
              JOINT rMid1
              {
                OFFSET -8.24714 1.18213 3.41376
                CHANNELS 3 Zrotation Xrotation Yrotation
                JOINT rMid2
                {
                  OFFSET -3.10165 -0.590103 1.0647
                  CHANNELS 3 Zrotation Xrotation Yrotation
                  End Site
                  {
                    OFFSET -2.48547 -0.328903 0.83742
                  }
                }
              }
              JOINT rRing1
              {
                OFFSET -8.82822 0.546677 1.51678
                CHANNELS 3 Zrotation Xrotation Yrotation
                JOINT rRing2
                {
                  OFFSET -2.60934 -0.819778 -0.0198488
                  CHANNELS 3 Zrotation Xrotation Yrotation
                  End Site
                  {
                    OFFSET -2.33842 -0.294052 0.168128
                  }
                }
              }
              JOINT rPinky1
              {
                OFFSET -8.27202 -0.0477905 -0.4584
                CHANNELS 3 Zrotation Xrotation Yrotation
                JOINT rPinky2
                {
                  OFFSET -1.82734 -0.647385 -0.700984
                  CHANNELS 3 Zrotation Xrotation Yrotation
                  End Site
                  {
                    OFFSET -1.69225 -0.51767 -0.607171
                  }
                }
              }
            }
          }
        }
      }
      JOINT lCollar
      {
        OFFSET 2.68224 19.2634 -4.8768
        CHANNELS 3 Zrotation Xrotation Yrotation
        JOINT lShldr
        {
          OFFSET 8.77824 -1.95073 1.46304
          CHANNELS 3 Zrotation Xrotation Yrotation
          JOINT lForeArm
          {
            OFFSET 28.1742 -1.7115 0.48768
            CHANNELS 3 Zrotation Xrotation Yrotation
            JOINT lHand
            {
              OFFSET 22.5879 0.773209 7.07136
              CHANNELS 3 Zrotation Xrotation Yrotation
              JOINT lThumb1
              {
                OFFSET 1.2192 -0.487915 3.41376
                CHANNELS 3 Zrotation Xrotation Yrotation
                JOINT lThumb2
                {
                  OFFSET 3.37035 -0.52449 3.41376
                  CHANNELS 3 Zrotation Xrotation Yrotation
                  End Site
                  {
                    OFFSET 1.78271 -1.18214 1.43049
                  }
                }
              }
              JOINT lIndex1
              {
                OFFSET 7.75947 0.938293 5.60832
                CHANNELS 3 Zrotation Xrotation Yrotation
                JOINT lIndex2
                {
                  OFFSET 2.54057 -0.884171 1.56538
                  CHANNELS 3 Zrotation Xrotation Yrotation
                  End Site
                  {
                    OFFSET 1.62519 -0.234802 1.16502
                  }
                }
              }
              JOINT lMid1
              {
                OFFSET 8.24714 1.18213 3.41376
                CHANNELS 3 Zrotation Xrotation Yrotation
                JOINT lMid2
                {
                  OFFSET 3.10165 -0.590103 1.0647
                  CHANNELS 3 Zrotation Xrotation Yrotation
                  End Site
                  {
                    OFFSET 2.48547 -0.328903 0.83742
                  }
                }
              }
              JOINT lRing1
              {
                OFFSET 8.82822 0.546677 1.51678
                CHANNELS 3 Zrotation Xrotation Yrotation
                JOINT lRing2
                {
                  OFFSET 2.60934 -0.819778 -0.0198488
                  CHANNELS 3 Zrotation Xrotation Yrotation
                  End Site
                  {
                    OFFSET 2.33842 -0.294052 0.168128
                  }
                }
              }
              JOINT lPinky1
              {
                OFFSET 8.27202 -0.0477905 -0.4584
                CHANNELS 3 Zrotation Xrotation Yrotation
                JOINT lPinky2
                {
                  OFFSET 1.82734 -0.647385 -0.700984
                  CHANNELS 3 Zrotation Xrotation Yrotation
                  End Site
                  {
                    OFFSET 1.69225 -0.51767 -0.607171
                  }
                }
              }
            }
          }
        }
      }
    }
  }
  JOINT rButtock
  {
    OFFSET -8.77824 4.35084 1.2192
    CHANNELS 3 Zrotation Xrotation Yrotation
    JOINT rThigh
    {
      OFFSET 0 -1.70687 -2.19456
      CHANNELS 3 Zrotation Xrotation Yrotation
      JOINT rShin
      {
        OFFSET 0 -36.8199 0.73152
        CHANNELS 3 Zrotation Xrotation Yrotation
        JOINT rFoot
        {
          OFFSET 0.73152 -45.1104 -5.12064
          CHANNELS 3 Zrotation Xrotation Yrotation
          End Site
          {
            OFFSET -1.1221 -3.69964 12.103
          }
        }
      }
    }
  }
  JOINT lButtock
  {
    OFFSET 8.77824 4.35084 1.2192
    CHANNELS 3 Zrotation Xrotation Yrotation
    JOINT lThigh
    {
      OFFSET 0 -1.70687 -2.19456
      CHANNELS 3 Zrotation Xrotation Yrotation
      JOINT lShin
      {
        OFFSET 0 -36.8199 0.73152
        CHANNELS 3 Zrotation Xrotation Yrotation
        JOINT lFoot
        {
          OFFSET -0.73152 -45.1104 -5.12064
          CHANNELS 3 Zrotation Xrotation Yrotation
          End Site
          {
            OFFSET 1.1221 -3.69964 12.103
          }
        }
      }
    }
  }
}
MOTION
Frames:	4
Frame Time:	0.03333
-2.757583186030388 62.17547655105591 2.145073562860489 -6.559546339245581 5.055266330215619 2.5489958623974935 -2.393077584684912 14.83855694354873 4.069743457516356 2.5009499638980968 -9.887485149121655 1.2090880910035908 -4.859295396323259 15.349934914254876 -3.2067435063565446 8.418681996414385 -25.0600972534656 -4.2973693300039635 -0.005624100492550148 0.011025953032810428 0.04417787699505404 0.10362901746960862 -0.03202963850424589 -0.049006687336120826 -0.026166027823495724 -0.046316046370385375 -0.013340106500975373 48.78984099624738 31.174031805975794 16.311273794650415 -24.121779525667588 -29.927064659774075 67.24755637908765 -4.923681028308031 -11.73609292345853 -5.514316941029829 -0.003423952486586236 0.05923983149710731 -0.06318458590790701 0.043349689877763546 -0.014852726597868744 -0.0510948309118671 -0.004502508725640007 -0.08883378719072962 -0.05203031336410762 7.741442273224587 5.4823243349574895 0.40861905530377474 -0.01811328815290358 0.09845624307080822 0.025047584346906137 2.9397492772666305 0.9181855317759876 0.09445756751816244 0.07107617580276918 -0.01270177729827008 0.007041549007022932 10.332027157478288 0.7503801635866449 0.04043909547641253 0.03141682912943559 0.07085133984911411 -0.03061055998246996 2.1642107522024783 -0.789107923149999 -0.16787647152581953 -0.005641149285048734 -0.014818575652018679 -0.030299733014381488 -58.4091686496861 31.626869932853054 -26.805985812874653 23.32212488330459 -28.148135060255083 -63.83074058641044 5.10798898730577 -13.904298055664997 4.062204636219954 -0.1067455047218385 -0.0031475699490387276 0.05263429151776451 0.07255512520148849 0.0406716420733103 -0.03261281926548862 0.06614846779097604 0.006334778674141999 -0.05534091405894073 -7.795735446937019 5.467925869300279 -0.3983663543902038 0.06546053300540221 0.0230296369731376 0.032507111415912095 -2.9478289641679325 1.037424626428543 -0.13156993398195563 0.06694185696207516 -0.0026607855685430925 -0.06923271841795331 -10.407874700663987 0.7448323424333021 -0.0600476080881671 -0.015985310700474372 0.04528351386694985 -0.03169634661709042 -2.2270104996393374 -0.7279445929887397 0.1637929522170775 0.027354160573960597 -0.046908885446001324 -0.002741814023657658 -32.42812625457642 -36.2996004195447 -28.315601053420043 -5.491121191721643 62.99900113042131 6.620736723359256 -4.644490642681412 -10.330013959220427 -10.624725522849076 -0.008489658334061395 0.05329511231996324 -0.00808929185482229 38.65326311696359 -34.09570328005669 31.499917206750027 5.406063565327004 63.338270286874184 -6.538678830670722 5.01409096169102 -10.021402106857156 13.875510515860686
-2.7138371020555496 62.16810941696167 2.208059746772051 -6.547546550647515 5.083654303953484 2.5453521699187034 -2.409648477385009 14.827292254060085 4.0628159381506705 2.505869194204387 -9.877520756896253 1.21821898670684 -4.852143334488609 15.363245245399938 -3.2078935394580457 8.425216779902795 -25.053721271875393 -4.321926848277921 -0.010144084897511868 0.00475199739333059 0.03544676080166211 0.09137032201331667 -0.02752512874662248 -0.047158107309427454 -0.03168914290195018 -0.038953742775346314 -0.018502235409624073 48.78845446784587 31.1529162761567 16.344448023449168 -24.139684866576776 -29.938860396470687 67.27674177741113 -4.916784671680433 -11.716423686196187 -5.507042362676942 -0.00533960710536325 0.05473844334937801 -0.04510272729735607 0.03640456143062417 -0.01604913028053168 -0.06289206171236007 0.0029454923991415537 -0.07828946921611088 -0.048001995857681036 7.747794349152699 5.486577835263114 0.4003553801817055 -0.029052583160619472 0.0914434530622034 0.030423156667117732 2.935160884248263 0.9249918152839053 0.10709309731756868 0.06283005640130104 -0.005445181552807548 0.004824779095383559 10.338421068315066 0.7435257485894198 0.04477050262725842 0.02661320511093322 0.058647819514711166 -0.03546042118000214 2.176462404026189 -0.78341858901479 -0.17421312616744597 -0.011935382048627048 -0.013240908675451515 -0.018839529360746343 -58.45116065270334 31.664282294031796 -26.803240076828306 23.331890346270416 -28.169834571248213 -63.85756956947025 5.098542835683642 -13.926241745920956 4.078717472312107 -0.0940843617130447 -0.014662415116033974 0.03065650367680887 0.061667109973400594 0.03103648631024372 -0.021166169268487717 0.04658736629701487 0.006817801114508839 -0.049503983804635936 -7.807911112906212 5.475163308499554 -0.39271746778148586 0.04224130492194386 0.020122537707650927 0.03058622743355179 -2.9472291881814408 1.030627307543911 -0.12873263071205002 0.05796952303319072 -0.0005323812292907595 -0.05932232737567637 -10.402581304057227 0.7363128553824747 -0.04883489207023914 -0.0054148459079391715 0.034805576793327166 -0.026629947078527682 -2.2259078509752035 -0.7306540436551192 0.16185942171258208 0.02134231344388 -0.03319333198408681 -0.002607878282901939 -32.44289995375116 -36.32825989330208 -28.33980382874398 -5.503006574651111 63.02520173607748 6.622912992383551 -4.658226153102308 -10.333008997171477 -10.612455088005149 -0.017442115345244046 0.05715737085219389 -0.01092606151619899 38.641501531212825 -34.098681242534816 31.484501469793308 5.4080225489583285 63.35014115565166 -6.539045099564964 5.01219942617775 -10.03119318303237 13.9017691781248
-2.6753993704915047 62.17372417449951 2.2837061434984207 -6.549869668738965 5.084102962004589 2.5373862483557645 -2.4149952348446595 14.834854981018582 4.0655757614621795 2.5023744852268677 -9.886688578309702 1.2167903032315437 -4.849220867297491 15.373898632957866 -3.211403829804609 8.426038963924135 -25.06711868793237 -4.315342972804852 -0.010960345864181282 -0.0014142760450157653 0.039598128434854704 0.08449947187340119 -0.02723079028207724 -0.03873659078450751 -0.03594595158045484 -0.04175049179705497 -0.020427921868744543 48.795742279690266 31.160576333310868 16.350421023878344 -24.145015829223972 -29.948771000956373 67.27767751332742 -4.923147419779124 -11.724691630186488 -5.507677997156576 -0.004035788025831284 0.053786379012101704 -0.053846009765207085 0.04021313894484675 -0.024823628847323764 -0.058896721213019955 0.003320992720933583 -0.08751620101115186 -0.04833539446654229 7.7424300893333005 5.478632190824274 0.4044163545301012 -0.028868808383263816 0.07744359297608712 0.028614010310710605 2.935786913774377 0.9283252677639888 0.10494916497012514 0.05464455492871678 -0.002720709806339376 0.00851574928983498 10.341320483617737 0.7448669202659752 0.04171185853956209 0.025347912567188356 0.05404736694359023 -0.03754981873579135 2.172574745727982 -0.7790440662948084 -0.17920028483946598 -0.012636757099022731 -0.013816992443259778 -0.023619487840991674 -58.45825038906181 31.669336634017608 -26.807870945085575 23.33983897891702 -28.175756345258616 -63.86776021171191 5.109055777476762 -13.923597608938515 4.073116717192696 -0.09737960782245851 -0.014146202225169104 0.03537056150373415 0.058100310483625885 0.022876651407899896 -0.029426962904500795 0.05620750097999271 0.0001185061166370352 -0.037494163366226324 -7.803656758826941 5.4721085063932655 -0.39546181644565587 0.04572843665835271 0.01484803084281436 0.031780656764657765 -2.945697731703477 1.0284296941784592 -0.131768009467886 0.060007187242102376 -0.007332901765096268 -0.0565319816563146 -10.399596511389932 0.7456742699702119 -0.043232215960124616 -0.006202985705135174 0.03662934402342635 -0.033788305493818394 -2.22007999206589 -0.730168246450402 0.15639788505836352 0.023063521114723214 -0.029570556959629735 -0.0034351849461197333 -32.43920482141018 -36.33357378047635 -28.339479394758406 -5.500951541484583 63.03699747277409 6.612128977457747 -4.666132097066598 -10.333826912324588 -10.62144703204747 -0.011332617854373422 0.05607990851062438 -0.01491499871319222 38.64829756943699 -34.1042888278434 31.494972149790936 5.407710921577447 63.36139730740385 -6.54745434309372 5.013936855547872 -10.02417772498112 13.897332970258876
-2.6366086676716805 62.18801736831665 2.3612496443092823 -6.561730292232692 5.064017083202875 2.5319150533871726 -2.4080186234943146 14.851966312436756 4.072115240705643 2.4964875024925512 -9.903190315344453 1.208747115153619 -4.850735888632764 15.375913538763019 -3.2144214927572854 8.421729968331503 -25.087578519591144 -4.288460202005328 -0.009989872032657674 -0.0015894063642031234 0.0514894877798469 0.08612324262686594 -0.030193598277981838 -0.03222646001013332 -0.037457397738584614 -0.0511104122809112 -0.018581316193608127 48.80511329923153 31.185007919972 16.332515682969156 -24.138178809864787 -29.95193337854209 67.25754211565422 -4.934483826254052 -11.749109556469282 -5.513979273552736 -7.63060196337362e-05 0.054892709575085095 -0.0766840279156141 0.049535493388267904 -0.033566857954321884 -0.04684495914423823 -0.001319693933266956 -0.10362626938568474 -0.050618171753207486 7.732127602743982 5.466176060212287 0.41466451977117647 -0.022110336199536198 0.06634955149498813 0.02188061772784163 2.94148905451428 0.926546216928612 0.09266506974785721 0.05177576875560564 -0.00437788445371372 0.015953344214539523 10.340030431638251 0.7519094856304931 0.03472521534887373 0.027665534490791198 0.05689566254919133 -0.03651216359047832 2.1582951680510125 -0.7782361829820428 -0.18072912663563814 -0.008939597045635985 -0.014759078301045522 -0.03816469584365117 -58.43547170817982 31.646267670095888 -26.81385419079851 23.341141837501198 -28.166972721985978 -63.85916783373604 5.126680653743157 -13.903060083877932 4.054060916295184 -0.10975292239075973 -0.0036427053030117615 0.05917067583176093 0.060509446269936325 0.019412785003351397 -0.0479681517367351 0.08182249795611236 -0.006640766479883943 -0.029207329634002573 -7.789385078556199 5.463596383140137 -0.4034467344722239 0.06721258324921625 0.011148202746783078 0.0344958704031494 -2.945045875524564 1.0325664409379598 -0.13744752520616316 0.07051826140537021 -0.01670893722652549 -0.06108302207765872 -10.400300020874443 0.7626206096312482 -0.046510279874907606 -0.0164954404541097 0.04604625389816987 -0.0461473193535449 -2.214509545910922 -0.7285046685006807 0.1520426256062755 0.02944056992198793 -0.03617460283509159 -0.005121708062583975 -32.42471115999141 -36.318110232195444 -28.320863714175537 -5.488279833026917 63.030829811953566 6.597513226407566 -4.664776304516351 -10.332567596196366 -10.641034307039774 0.002970171793603514 0.05263173019682576 -0.01799520058545641 38.66598775938732 -34.11047014904226 31.51964279307302 5.406062284666535 63.366704364388944 -6.55614020928386 5.017118869927451 -10.008652704997681 13.873442676089464
